<svg xmlns="http://www.w3.org/2000/svg" xmlns:xlink="http://www.w3.org/1999/xlink" width="140" height="140" viewBox="0 0 140 140">
  <defs>
    <clipPath id="clip-Education">
      <rect width="140" height="140"/>
    </clipPath>
  </defs>
  <g id="Education" clip-path="url(#clip-Education)">
    <rect width="140" height="140" fill="rgba(255,255,255,0)"/>
    <path id="Union_8" data-name="Union 8" d="M23,121.595H0v-85a8.975,8.975,0,0,1,.7-3.477c.005-.023.011-.043.017-.064L9.574,1.46a2,2,0,0,1,3.851,0l8.862,31.6c.006.022.012.042.017.065A8.967,8.967,0,0,1,23,36.6V56.484a7,7,0,0,1,3.7-6.063,2.09,2.09,0,0,1,.479-.463L57.849,28.4a2,2,0,0,1,2.3,0L90.824,49.958a2.054,2.054,0,0,1,.479.463A7,7,0,0,1,95,56.594v54h0v-74a8.975,8.975,0,0,1,.7-3.477c.005-.023.011-.043.017-.064l8.861-31.6a2,2,0,0,1,3.851,0l8.862,31.6c.005.022.012.042.017.065A8.983,8.983,0,0,1,118,36.6v85H95Zm67-11v-27a8.008,8.008,0,0,0-8-8H79a8.008,8.008,0,0,0-8,8v27Zm-22,0v-49a7.006,7.006,0,0,0-7-7H57a7.007,7.007,0,0,0-7,7v49Zm-21,0v-27a8.008,8.008,0,0,0-8-8H36a8.008,8.008,0,0,0-8,8v27Z" transform="translate(11 7.405)" fill="#1a1717"/>
  </g>
</svg>
