<svg xmlns="http://www.w3.org/2000/svg" xmlns:xlink="http://www.w3.org/1999/xlink" width="140" height="140" viewBox="0 0 140 140">
  <defs>
    <clipPath id="clip-Publications">
      <rect width="140" height="140"/>
    </clipPath>
  </defs>
  <g id="Publications" clip-path="url(#clip-Publications)">
    <rect width="140" height="140" fill="rgba(255,255,255,0)"/>
    <rect id="Rectangle_29" data-name="Rectangle 29" width="22" height="69" transform="translate(23 41)" fill="#1a1717"/>
    <path id="Union_3" data-name="Union 3" d="M-623,117a7,7,0,0,1-7-7V100h118v10a7,7,0,0,1-7,7Zm103-17V17H-623v83h-7V7a7,7,0,0,1,7-7h104a7,7,0,0,1,7,7v93Z" transform="translate(641 12)" fill="#1a1717"/>
    <rect id="Rectangle_45" data-name="Rectangle 45" width="19" height="61" transform="translate(97 49)" fill="#1a1717"/>
    <rect id="Rectangle_69" data-name="Rectangle 69" width="22" height="40" transform="translate(48 70)" fill="#1a1717"/>
    <rect id="Rectangle_70" data-name="Rectangle 70" width="22" height="69" transform="translate(73 41)" fill="#1a1717"/>
  </g>
</svg>
