<svg xmlns="http://www.w3.org/2000/svg" xmlns:xlink="http://www.w3.org/1999/xlink" width="140" height="140" viewBox="0 0 140 140">
  <defs>
    <clipPath id="clip-Work">
      <rect width="140" height="140"/>
    </clipPath>
  </defs>
  <g id="Work" clip-path="url(#clip-Work)">
    <rect width="140" height="140" fill="rgba(255,255,255,0)"/>
    <path id="Subtraction_5" data-name="Subtraction 5" d="M-200,33h-10V5a5.006,5.006,0,0,1,5-5h60a5.006,5.006,0,0,1,5,5V33h-9V12a6.007,6.007,0,0,0-6-6h-39a6.007,6.007,0,0,0-6,6V33Z" transform="translate(245 11)" fill="#1a1717"/>
    <path id="Subtraction_8" data-name="Subtraction 8" d="M-107,79h-88a14.9,14.9,0,0,1-10.607-4.394A14.9,14.9,0,0,1-210,64V15a14.9,14.9,0,0,1,4.393-10.607A14.9,14.9,0,0,1-195,0h88A14.9,14.9,0,0,1-96.394,4.394,14.9,14.9,0,0,1-92,15V64a14.9,14.9,0,0,1-4.394,10.606A14.9,14.9,0,0,1-107,79ZM-131,9a6.007,6.007,0,0,0-6,6V63a6.007,6.007,0,0,0,6,6h8a6.007,6.007,0,0,0,6-6V15a6.007,6.007,0,0,0-6-6Zm-24,0a6.007,6.007,0,0,0-6,6V63a6.007,6.007,0,0,0,6,6h8a6.007,6.007,0,0,0,6-6V15a6.007,6.007,0,0,0-6-6Zm-24,0a6.007,6.007,0,0,0-6,6V63a6.007,6.007,0,0,0,6,6h8a6.007,6.007,0,0,0,6-6V15a6.007,6.007,0,0,0-6-6Z" transform="translate(221.001 50)" fill="#1a1717"/>
  </g>
</svg>
